<?xml version="1.0" encoding="utf-8"?>
<!-- Generator: Adobe Illustrator 24.0.1, SVG Export Plug-In . SVG Version: 6.00 Build 0)  -->
<svg version="1.1" xmlns="http://www.w3.org/2000/svg" xmlns:xlink="http://www.w3.org/1999/xlink" x="0px" y="0px"
	 viewBox="0 0 1557 363" style="enable-background:new 0 0 1557 363;" xml:space="preserve">
<style type="text/css">
	.st0{fill:#C51D34;}
	.st1{fill-rule:evenodd;clip-rule:evenodd;fill:#020202;}
	.st2{clip-path:url(#SVGID_2_);fill-rule:evenodd;clip-rule:evenodd;fill:#020202;}
	.st3{clip-path:url(#SVGID_4_);fill:#020202;}
</style>
<g id="Capa_2">
	<path class="st0" d="M277.6,165.2l-2.1,19.4c-57.1,3.3-109.5,6.3-175.4,2.7l-3.6-20L277.6,165.2z"/>
</g>
<g id="Capa_1">
	<g>
		<g>
			<path id="Relleno_de_color_2" class="st1" d="M187,7.6c0.1,0.1,3.4,22.3,0.7,55.4c-3.8,2.4-5,2.6-10,1.3c-3-11.1-3-47,0-58.1
				C177,6.5,183,2.1,187,7.6z M122.8,31.7c1.9,3.8,4.5,14.8,13.5,36.1c-0.9,3.4-7,5.1-8.6,3.3c-1.6-1.7-12.8-32.3-15-36.7
				C114.8,29.2,121.4,28.4,122.8,31.7z M244,31.7c2.3-1.1,8.4-1.4,9.3,4.7c-1.5,5-14.6,37.9-15.7,35.4c-3.9,2.4-8.5-2.9-7.8-4.7
				S240.1,40.6,244,31.7L244,31.7z M25.9,69.7c-1.3-2.4-0.5-8,7.1-7.3c2.2,2.1,36.7,29.3,44.4,32.2c4,1.5-2.2,11.7-6.6,7.8
				C68.8,100.7,27.7,72.4,25.9,69.7z M341.3,62.4c5.6-0.9,8.1,4.6,5.7,8c-0.9,0.6-41.9,30.3-45.6,32.7c-5.3,0.5-7.7-5.7-5.7-8
				C325.3,74,335.3,65.6,341.3,62.4L341.3,62.4z M271.1,208.6c0.5-4,1-8,1.4-12c-55,3.5-114.8,3.3-171.1,2
				c-0.3-2.4,21.7,102.3,27.1,140.2h-32c-0.8-8-24.3-140.5-37.8-187c-2-6.8,1.6-13.2,3.6-16.7c6.8-12.2,17.3-20.8,37.1-20.7
				c4.3-18.3,31.4-41.3,59.2-34.7c6,1.4,12.5,3.7,17.1,6.7c2.7,1.8,5.7,6.6,8.6,6c10.8-3.6,21.6-11.9,38.5-6.7
				c6.1,1.9,10.2,6.8,15.7,8.7c4.2-3.6,15.5-5.1,22.8-3.3c20.5,4.8,27.1,15,34.2,32.1c38.4-0.2,12.4,57.2,13.5,64.8
				c6.2,0,9.7-0.5,18.5,0c5.3,0.2,9.9,5.6,10,7.3c-0.1,2.5-11.1,108.1-11.4,110.2s-5.3,20.1-12.8,25.4c-13.6,9.5-36.6,7.6-59.2,7.3
				c0.2-4.5,0.7-8.9,1.4-13.4c23.5-1.5,37.4-1.8,44.2-10.7c-0.5,7.9,14.1-93.5,12.8-99.5c-0.3-2.8-4.2-4.3-7.1-5.3
				C298.1,206.7,280.2,208.6,271.1,208.6z M77.2,150.1l56.3,2.7l54.2,0.7c41.6,0,83.2-1.4,118.4-8c-0.3,0,2.6-6.6-7.8-10
				c-4.5-2.6-10.6,1.2-12.8-4c-3.8-5.5-2.6-13.4-7.8-17.4c-9.1-6.9-23.1-1.4-29.9,3.3l-7.1,6.7c-4.6,2.2-8.4,1.9-13.5,0
				s-2-8.4-12.1-12s-31.8,11.6-39.2,8s-9.6-15.4-15-18c-13.6-6.6-31.3,2.6-37.1,10c-4,5.2-3.6,17.8-9.3,21.4
				c-5,3.1-14.4-0.3-21.4,1.3C84.2,136.8,77.6,140.2,77.2,150.1z M96.5,167.5l3.6,20c-1.7,0,30.1,0.7,59.9,1.3
				c40.3,0,79.6-1.5,115.5-4l2.1-19.4l-61.3,3.3h-34.9C152.2,168.8,124,167.5,96.5,167.5z M113.6,211.3c4.5,0,9,0.2,13.5,0.7
				c0.5,5.5,9.6,70.6,10,83.5l-8.6-0.7C123.5,266.9,118.6,239.1,113.6,211.3L113.6,211.3z M266.9,227.3c8.8-0.3,20.6-0.6,22.8,5.3
				c1.9-2.8-4.2,61.7-5.7,64.1c-0.9,3.7-4.6,8.4-5,8.7c-1.1,0.9-2.3,1.5-3.6,2c-0.4,0-12.9,0.1-17.8,0L266.9,227.3z M130.7,303.4
				c3.6-0.1,5.9-0.1,7.1,2c2.4,3.5,3,13.1,3.6,17.4l-0.7,0.7c-1.9-0.5-3.8-1-5.7-1.3C133.6,316.7,132.1,309.7,130.7,303.4z
				 M390.3,101.8c13.6,0,40,0,40.9,0c0.2,1.7,22.8,161.2,23.3,162.3c0.3-0.3,14.9-108.2,22.4-162.3h41.4v230h-26V191.1
				c0-2.5,0.8-9.8-0.4-11.3c-8.4,50.7-16.7,101.3-25.1,152c-8.5,0-25.3,0-25.5,0c-0.2-1.7-25.4-151.3-25.5-152h-0.4v152h-24.6
				c-1.9-4.3-0.4-16.3-0.4-21.7L390.3,101.8L390.3,101.8z M544.3,102.8h25v230h-25V102.8L544.3,102.8z M697.3,159.8h-25.5
				c0.2-13.4,1.7-27.8-8.2-33.7c-2.7-1.6-5.6-2.9-8.7-3.9c-3.5-0.9-7.2-1.1-10.8-0.6c-14.7,2.5-20.5,6.2-23.8,17.2v146.4
				c0,5.8-0.6,12.1,1.7,16.2c5,8.8,20.8,15.7,35.9,9.7c2.7-1.1,5.6-2.1,7.4-3.9c8.1-8.2,6.6-18.3,6.5-32.4h25.5v20.9
				c0,5.9,0.5,11.9-1.7,16.4c-3.1,6.4-9.5,12.1-16.8,15.5c-6.9,3.2-15.4,3.9-26.7,3.9c-8.1,0-18.1,1-25.4-0.3
				c-16.3-3-27.1-11.2-31-23.5c-0.1-5-0.3-10.1-0.4-15.1V167.2c0-18.6-3.2-41.9,7.3-52.8c5.5-5.7,14.2-9.7,25-11.6h15.9
				c20.4,0,28.7-0.2,40.5,6.4C700.4,118.5,697.5,138.5,697.3,159.8z M723.3,102.8h25v105h51v-105h25v230h-25v-106h-51v106h-25V102.8
				L723.3,102.8z M851.3,102.8h102v18h-76v87h76v19h-76v87h76v19h-102V102.8z M974.3,102.8h48.4c7.4,0,17.2-1,23.8,0.3
				c11.6,2.3,20,7.7,25.5,14.5c7.2,8.9,4.3,28,4.3,41.7V181c0,7.7,1.5,17.2-0.9,23.9c-3.6,10.3-12.8,17.8-26,21
				c-7.2,1.7-18.1,1-27.3,1h-22.9v106h-25C974.3,332.8,974.3,102.8,974.3,102.8z M1121.8,102.8h25.9c12.6,76.7,25.3,153.3,37.9,230
				h-27.9c-2.6-19.3-5.2-38.7-7.8-58H1120c-2.7,19.3-5.5,38.7-8.2,58h-27.9C1096.5,256.2,1109.1,179.5,1121.8,102.8z M1208.3,102.8
				h49.4c8.1,0,18.3-0.9,25,0.6c8.2,1.8,16.2,6,20.7,10.7c7.3,7.6,6.9,16.6,6.9,29.8v40.8c0,6,1.5,20-0.9,24.3
				c-1.6,2.9-5.7,6.2-9.5,7.5c-1.9,0.6-4.4,0.5-6,1.3c19,0.9,16.4,15.4,16.4,30.5v84.5h-26v-67.1c0-14.3,1.4-25.3-7.3-33.1
				c-7.8-7-26.7-5.6-43.7-5.5v105.7h-25V102.8z M1331.9,102.6c1.6-0.3,17.5,0,26.3,0c0.2,0.1,0.3,0.2,0.4,0.3
				c4.8,14.6,21.9,68.9,24.6,73c0.4-2,23.5-71.8,23.7-73c1.5-0.7,5.5-0.3,7.8-0.3c6.2,0,18.1,0.3,18.6,0s-13.6,40.3-38,114.8v115.5
				h-25.5c0-38.5-0.2-113.8,0-115.5C1364.9,200.4,1336.6,118.7,1331.9,102.6z M999.3,121.3v86c17.8,0.1,37,1.5,44.6-6.1
				c2.6-2.5,4.7-5.6,6-9c1.3-3.7,0.4-9,0.4-13.2v-26.7c0-10.2,0-18.1-5.6-23.8C1036.5,119.8,1018.9,121.2,999.3,121.3z
				 M1233.3,121.3v86c17.8,0.1,37,1.5,44.6-6.1c2.6-2.5,4.7-5.6,6-9c1.3-3.7,0.4-8.9,0.4-13.2v-26.4c0-10.7-0.1-18.6-6-24.5
				C1270.4,120.1,1252.1,121.2,1233.3,121.3z M1122.6,255.8h24.6c-7.7-53.4-12.3-86.4-12.5-86.6
				C1130.7,198.1,1126.7,227,1122.6,255.8z"/>
		</g>
		<g>
			<defs>
				<path id="SVGID_1_" d="M187,7.6c0.1,0.1,3.4,22.3,0.7,55.4c-3.8,2.4-5,2.6-10,1.3c-3-11.1-3-47,0-58.1C177,6.5,183,2.1,187,7.6z
					 M122.8,31.7c1.9,3.8,4.5,14.8,13.5,36.1c-0.9,3.4-7,5.1-8.6,3.3c-1.6-1.7-12.8-32.3-15-36.7C114.8,29.2,121.4,28.4,122.8,31.7z
					 M244,31.7c2.3-1.1,8.4-1.4,9.3,4.7c-1.5,5-14.6,37.9-15.7,35.4c-3.9,2.4-8.5-2.9-7.8-4.7S240.1,40.6,244,31.7L244,31.7z
					 M25.9,69.7c-1.3-2.4-0.5-8,7.1-7.3c2.2,2.1,36.7,29.3,44.4,32.2c4,1.5-2.2,11.7-6.6,7.8C68.8,100.7,27.7,72.4,25.9,69.7z
					 M341.3,62.4c5.6-0.9,8.1,4.6,5.7,8c-0.9,0.6-41.9,30.3-45.6,32.7c-5.3,0.5-7.7-5.7-5.7-8C325.3,74,335.3,65.6,341.3,62.4
					L341.3,62.4z M271.1,208.6c0.5-4,1-8,1.4-12c-55,3.5-114.8,3.3-171.1,2c-0.3-2.4,21.7,102.3,27.1,140.2h-32
					c-0.8-8-24.3-140.5-37.8-187c-2-6.8,1.6-13.2,3.6-16.7c6.8-12.2,17.3-20.8,37.1-20.7c4.3-18.3,31.4-41.3,59.2-34.7
					c6,1.4,12.5,3.7,17.1,6.7c2.7,1.8,5.7,6.6,8.6,6c10.8-3.6,21.6-11.9,38.5-6.7c6.1,1.9,10.2,6.8,15.7,8.7
					c4.2-3.6,15.5-5.1,22.8-3.3c20.5,4.8,27.1,15,34.2,32.1c38.4-0.2,12.4,57.2,13.5,64.8c6.2,0,9.7-0.5,18.5,0
					c5.3,0.2,9.9,5.6,10,7.3c-0.1,2.5-11.1,108.1-11.4,110.2s-5.3,20.1-12.8,25.4c-13.6,9.5-36.6,7.6-59.2,7.3
					c0.2-4.5,0.7-8.9,1.4-13.4c23.5-1.5,37.4-1.8,44.2-10.7c-0.5,7.9,14.1-93.5,12.8-99.5c-0.3-2.8-4.2-4.3-7.1-5.3
					C298.1,206.7,280.2,208.6,271.1,208.6z M77.2,150.1l56.3,2.7l54.2,0.7c41.6,0,83.2-1.4,118.4-8c-0.3,0,2.6-6.6-7.8-10
					c-4.5-2.6-10.6,1.2-12.8-4c-3.8-5.5-2.6-13.4-7.8-17.4c-9.1-6.9-23.1-1.4-29.9,3.3l-7.1,6.7c-4.6,2.2-8.4,1.9-13.5,0
					s-2-8.4-12.1-12s-31.8,11.6-39.2,8s-9.6-15.4-15-18c-13.6-6.6-31.3,2.6-37.1,10c-4,5.2-3.6,17.8-9.3,21.4
					c-5,3.1-14.4-0.3-21.4,1.3C84.2,136.8,77.6,140.2,77.2,150.1z M96.5,167.5l3.6,20c-1.7,0,30.1,0.7,59.9,1.3
					c40.3,0,79.6-1.5,115.5-4l2.1-19.4l-61.3,3.3h-34.9C152.2,168.8,124,167.5,96.5,167.5z M113.6,211.3c4.5,0,9,0.2,13.5,0.7
					c0.5,5.5,9.6,70.6,10,83.5l-8.6-0.7C123.5,266.9,118.6,239.1,113.6,211.3L113.6,211.3z M266.9,227.3c8.8-0.3,20.6-0.6,22.8,5.3
					c1.9-2.8-4.2,61.7-5.7,64.1c-0.9,3.7-4.6,8.4-5,8.7c-1.1,0.9-2.3,1.5-3.6,2c-0.4,0-12.9,0.1-17.8,0L266.9,227.3z M130.7,303.4
					c3.6-0.1,5.9-0.1,7.1,2c2.4,3.5,3,13.1,3.6,17.4l-0.7,0.7c-1.9-0.5-3.8-1-5.7-1.3C133.6,316.7,132.1,309.7,130.7,303.4z
					 M390.3,101.8c13.6,0,40,0,40.9,0c0.2,1.7,22.8,161.2,23.3,162.3c0.3-0.3,14.9-108.2,22.4-162.3h41.4v230h-26V191.1
					c0-2.5,0.8-9.8-0.4-11.3c-8.4,50.7-16.7,101.3-25.1,152c-8.5,0-25.3,0-25.5,0c-0.2-1.7-25.4-151.3-25.5-152h-0.4v152h-24.6
					c-1.9-4.3-0.4-16.3-0.4-21.7L390.3,101.8L390.3,101.8z M544.3,102.8h25v230h-25V102.8L544.3,102.8z M697.3,159.8h-25.5
					c0.2-13.4,1.7-27.8-8.2-33.7c-2.7-1.6-5.6-2.9-8.7-3.9c-3.5-0.9-7.2-1.1-10.8-0.6c-14.7,2.5-20.5,6.2-23.8,17.2v146.4
					c0,5.8-0.6,12.1,1.7,16.2c5,8.8,20.8,15.7,35.9,9.7c2.7-1.1,5.6-2.1,7.4-3.9c8.1-8.2,6.6-18.3,6.5-32.4h25.5v20.9
					c0,5.9,0.5,11.9-1.7,16.4c-3.1,6.4-9.5,12.1-16.8,15.5c-6.9,3.2-15.4,3.9-26.7,3.9c-8.1,0-18.1,1-25.4-0.3
					c-16.3-3-27.1-11.2-31-23.5c-0.1-5-0.3-10.1-0.4-15.1V167.2c0-18.6-3.2-41.9,7.3-52.8c5.5-5.7,14.2-9.7,25-11.6h15.9
					c20.4,0,28.7-0.2,40.5,6.4C700.4,118.5,697.5,138.5,697.3,159.8z M723.3,102.8h25v105h51v-105h25v230h-25v-106h-51v106h-25
					V102.8L723.3,102.8z M851.3,102.8h102v18h-76v87h76v19h-76v87h76v19h-102V102.8z M974.3,102.8h48.4c7.4,0,17.2-1,23.8,0.3
					c11.6,2.3,20,7.7,25.5,14.5c7.2,8.9,4.3,28,4.3,41.7V181c0,7.7,1.5,17.2-0.9,23.9c-3.6,10.3-12.8,17.8-26,21
					c-7.2,1.7-18.1,1-27.3,1h-22.9v106h-25C974.3,332.8,974.3,102.8,974.3,102.8z M1121.8,102.8h25.9c12.6,76.7,25.3,153.3,37.9,230
					h-27.9c-2.6-19.3-5.2-38.7-7.8-58H1120c-2.7,19.3-5.5,38.7-8.2,58h-27.9C1096.5,256.2,1109.1,179.5,1121.8,102.8z M1208.3,102.8
					h49.4c8.1,0,18.3-0.9,25,0.6c8.2,1.8,16.2,6,20.7,10.7c7.3,7.6,6.9,16.6,6.9,29.8v40.8c0,6,1.5,20-0.9,24.3
					c-1.6,2.9-5.7,6.2-9.5,7.5c-1.9,0.6-4.4,0.5-6,1.3c19,0.9,16.4,15.4,16.4,30.5v84.5h-26v-67.1c0-14.3,1.4-25.3-7.3-33.1
					c-7.8-7-26.7-5.6-43.7-5.5v105.7h-25V102.8z M1331.9,102.6c1.6-0.3,17.5,0,26.3,0c0.2,0.1,0.3,0.2,0.4,0.3
					c4.8,14.6,21.9,68.9,24.6,73c0.4-2,23.5-71.8,23.7-73c1.5-0.7,5.5-0.3,7.8-0.3c6.2,0,18.1,0.3,18.6,0s-13.6,40.3-38,114.8v115.5
					h-25.5c0-38.5-0.2-113.8,0-115.5C1364.9,200.4,1336.6,118.7,1331.9,102.6z M999.3,121.3v86c17.8,0.1,37,1.5,44.6-6.1
					c2.6-2.5,4.7-5.6,6-9c1.3-3.7,0.4-9,0.4-13.2v-26.7c0-10.2,0-18.1-5.6-23.8C1036.5,119.8,1018.9,121.2,999.3,121.3z
					 M1233.3,121.3v86c17.8,0.1,37,1.5,44.6-6.1c2.6-2.5,4.7-5.6,6-9c1.3-3.7,0.4-8.9,0.4-13.2v-26.4c0-10.7-0.1-18.6-6-24.5
					C1270.4,120.1,1252.1,121.2,1233.3,121.3z M1122.6,255.8h24.6c-7.7-53.4-12.3-86.4-12.5-86.6
					C1130.7,198.1,1126.7,227,1122.6,255.8z"/>
			</defs>
			<use xlink:href="#SVGID_1_"  style="overflow:visible;fill:#020202;"/>
			<clipPath id="SVGID_2_">
				<use xlink:href="#SVGID_1_"  style="overflow:visible;"/>
			</clipPath>
			<path id="Relleno_de_color_1" class="st2" d="M187,7.6c0.1,0.1,3.4,22.3,0.7,55.4c-3.8,2.4-5,2.6-10,1.3c-3-11.1-3-47,0-58.1
				C177,6.5,183,2.1,187,7.6z M122.8,31.7c1.9,3.8,4.5,14.8,13.5,36.1c-0.9,3.4-7,5.1-8.6,3.3c-1.6-1.7-12.8-32.3-15-36.7
				C114.8,29.2,121.4,28.4,122.8,31.7z M244,31.7c2.3-1.1,8.4-1.4,9.3,4.7c-1.5,5-14.6,37.9-15.7,35.4c-3.9,2.4-8.5-2.9-7.8-4.7
				S240.1,40.6,244,31.7L244,31.7z M25.9,69.7c-1.3-2.4-0.5-8,7.1-7.3c2.2,2.1,36.7,29.3,44.4,32.2c4,1.5-2.2,11.7-6.6,7.8
				C68.8,100.7,27.7,72.4,25.9,69.7z M341.3,62.4c5.6-0.9,8.1,4.6,5.7,8c-0.9,0.6-41.9,30.3-45.6,32.7c-5.3,0.5-7.7-5.7-5.7-8
				C325.3,74,335.3,65.6,341.3,62.4L341.3,62.4z M271.1,208.6c0.5-4,1-8,1.4-12c-55,3.5-114.8,3.3-171.1,2
				c-0.3-2.4,21.7,102.3,27.1,140.2h-32c-0.8-8-24.3-140.5-37.8-187c-2-6.8,1.6-13.2,3.6-16.7c6.8-12.2,17.3-20.8,37.1-20.7
				c4.3-18.3,31.4-41.3,59.2-34.7c6,1.4,12.5,3.7,17.1,6.7c2.7,1.8,5.7,6.6,8.6,6c10.8-3.6,21.6-11.9,38.5-6.7
				c6.1,1.9,10.2,6.8,15.7,8.7c4.2-3.6,15.5-5.1,22.8-3.3c20.5,4.8,27.1,15,34.2,32.1c38.4-0.2,12.4,57.2,13.5,64.8
				c6.2,0,9.7-0.5,18.5,0c5.3,0.2,9.9,5.6,10,7.3c-0.1,2.5-11.1,108.1-11.4,110.2s-5.3,20.1-12.8,25.4c-13.6,9.5-36.6,7.6-59.2,7.3
				c0.2-4.5,0.7-8.9,1.4-13.4c23.5-1.5,37.4-1.8,44.2-10.7c-0.5,7.9,14.1-93.5,12.8-99.5c-0.3-2.8-4.2-4.3-7.1-5.3
				C298.1,206.7,280.2,208.6,271.1,208.6z M77.2,150.1l56.3,2.7l54.2,0.7c41.6,0,83.2-1.4,118.4-8c-0.3,0,2.6-6.6-7.8-10
				c-4.5-2.6-10.6,1.2-12.8-4c-3.8-5.5-2.6-13.4-7.8-17.4c-9.1-6.9-23.1-1.4-29.9,3.3l-7.1,6.7c-4.6,2.2-8.4,1.9-13.5,0
				s-2-8.4-12.1-12s-31.8,11.6-39.2,8s-9.6-15.4-15-18c-13.6-6.6-31.3,2.6-37.1,10c-4,5.2-3.6,17.8-9.3,21.4
				c-5,3.1-14.4-0.3-21.4,1.3C84.2,136.8,77.6,140.2,77.2,150.1z M96.5,167.5l3.6,20c-1.7,0,30.1,0.7,59.9,1.3
				c40.3,0,79.6-1.5,115.5-4l2.1-19.4l-61.3,3.3h-34.9C152.2,168.8,124,167.5,96.5,167.5z M113.6,211.3c4.5,0,9,0.2,13.5,0.7
				c0.5,5.5,9.6,70.6,10,83.5l-8.6-0.7C123.5,266.9,118.6,239.1,113.6,211.3L113.6,211.3z M266.9,227.3c8.8-0.3,20.6-0.6,22.8,5.3
				c1.9-2.8-4.2,61.7-5.7,64.1c-0.9,3.7-4.6,8.4-5,8.7c-1.1,0.9-2.3,1.5-3.6,2c-0.4,0-12.9,0.1-17.8,0L266.9,227.3z M130.7,303.4
				c3.6-0.1,5.9-0.1,7.1,2c2.4,3.5,3,13.1,3.6,17.4l-0.7,0.7c-1.9-0.5-3.8-1-5.7-1.3C133.6,316.7,132.1,309.7,130.7,303.4z"/>
		</g>
		<g>
			<defs>
				<path id="SVGID_3_" d="M187,7.6c0.1,0.1,3.4,22.3,0.7,55.4c-3.8,2.4-5,2.6-10,1.3c-3-11.1-3-47,0-58.1C177,6.5,183,2.1,187,7.6z
					 M122.8,31.7c1.9,3.8,4.5,14.8,13.5,36.1c-0.9,3.4-7,5.1-8.6,3.3c-1.6-1.7-12.8-32.3-15-36.7C114.8,29.2,121.4,28.4,122.8,31.7z
					 M244,31.7c2.3-1.1,8.4-1.4,9.3,4.7c-1.5,5-14.6,37.9-15.7,35.4c-3.9,2.4-8.5-2.9-7.8-4.7S240.1,40.6,244,31.7L244,31.7z
					 M25.9,69.7c-1.3-2.4-0.5-8,7.1-7.3c2.2,2.1,36.7,29.3,44.4,32.2c4,1.5-2.2,11.7-6.6,7.8C68.8,100.7,27.7,72.4,25.9,69.7z
					 M341.3,62.4c5.6-0.9,8.1,4.6,5.7,8c-0.9,0.6-41.9,30.3-45.6,32.7c-5.3,0.5-7.7-5.7-5.7-8C325.3,74,335.3,65.6,341.3,62.4
					L341.3,62.4z M271.1,208.6c0.5-4,1-8,1.4-12c-55,3.5-114.8,3.3-171.1,2c-0.3-2.4,21.7,102.3,27.1,140.2h-32
					c-0.8-8-24.3-140.5-37.8-187c-2-6.8,1.6-13.2,3.6-16.7c6.8-12.2,17.3-20.8,37.1-20.7c4.3-18.3,31.4-41.3,59.2-34.7
					c6,1.4,12.5,3.7,17.1,6.7c2.7,1.8,5.7,6.6,8.6,6c10.8-3.6,21.6-11.9,38.5-6.7c6.1,1.9,10.2,6.8,15.7,8.7
					c4.2-3.6,15.5-5.1,22.8-3.3c20.5,4.8,27.1,15,34.2,32.1c38.4-0.2,12.4,57.2,13.5,64.8c6.2,0,9.7-0.5,18.5,0
					c5.3,0.2,9.9,5.6,10,7.3c-0.1,2.5-11.1,108.1-11.4,110.2s-5.3,20.1-12.8,25.4c-13.6,9.5-36.6,7.6-59.2,7.3
					c0.2-4.5,0.7-8.9,1.4-13.4c23.5-1.5,37.4-1.8,44.2-10.7c-0.5,7.9,14.1-93.5,12.8-99.5c-0.3-2.8-4.2-4.3-7.1-5.3
					C298.1,206.7,280.2,208.6,271.1,208.6z M77.2,150.1l56.3,2.7l54.2,0.7c41.6,0,83.2-1.4,118.4-8c-0.3,0,2.6-6.6-7.8-10
					c-4.5-2.6-10.6,1.2-12.8-4c-3.8-5.5-2.6-13.4-7.8-17.4c-9.1-6.9-23.1-1.4-29.9,3.3l-7.1,6.7c-4.6,2.2-8.4,1.9-13.5,0
					s-2-8.4-12.1-12s-31.8,11.6-39.2,8s-9.6-15.4-15-18c-13.6-6.6-31.3,2.6-37.1,10c-4,5.2-3.6,17.8-9.3,21.4
					c-5,3.1-14.4-0.3-21.4,1.3C84.2,136.8,77.6,140.2,77.2,150.1z M96.5,167.5l3.6,20c-1.7,0,30.1,0.7,59.9,1.3
					c40.3,0,79.6-1.5,115.5-4l2.1-19.4l-61.3,3.3h-34.9C152.2,168.8,124,167.5,96.5,167.5z M113.6,211.3c4.5,0,9,0.2,13.5,0.7
					c0.5,5.5,9.6,70.6,10,83.5l-8.6-0.7C123.5,266.9,118.6,239.1,113.6,211.3L113.6,211.3z M266.9,227.3c8.8-0.3,20.6-0.6,22.8,5.3
					c1.9-2.8-4.2,61.7-5.7,64.1c-0.9,3.7-4.6,8.4-5,8.7c-1.1,0.9-2.3,1.5-3.6,2c-0.4,0-12.9,0.1-17.8,0L266.9,227.3z M130.7,303.4
					c3.6-0.1,5.9-0.1,7.1,2c2.4,3.5,3,13.1,3.6,17.4l-0.7,0.7c-1.9-0.5-3.8-1-5.7-1.3C133.6,316.7,132.1,309.7,130.7,303.4z
					 M390.3,101.8c13.6,0,40,0,40.9,0c0.2,1.7,22.8,161.2,23.3,162.3c0.3-0.3,14.9-108.2,22.4-162.3h41.4v230h-26V191.1
					c0-2.5,0.8-9.8-0.4-11.3c-8.4,50.7-16.7,101.3-25.1,152c-8.5,0-25.3,0-25.5,0c-0.2-1.7-25.4-151.3-25.5-152h-0.4v152h-24.6
					c-1.9-4.3-0.4-16.3-0.4-21.7L390.3,101.8L390.3,101.8z M544.3,102.8h25v230h-25V102.8L544.3,102.8z M697.3,159.8h-25.5
					c0.2-13.4,1.7-27.8-8.2-33.7c-2.7-1.6-5.6-2.9-8.7-3.9c-3.5-0.9-7.2-1.1-10.8-0.6c-14.7,2.5-20.5,6.2-23.8,17.2v146.4
					c0,5.8-0.6,12.1,1.7,16.2c5,8.8,20.8,15.7,35.9,9.7c2.7-1.1,5.6-2.1,7.4-3.9c8.1-8.2,6.6-18.3,6.5-32.4h25.5v20.9
					c0,5.9,0.5,11.9-1.7,16.4c-3.1,6.4-9.5,12.1-16.8,15.5c-6.9,3.2-15.4,3.9-26.7,3.9c-8.1,0-18.1,1-25.4-0.3
					c-16.3-3-27.1-11.2-31-23.5c-0.1-5-0.3-10.1-0.4-15.1V167.2c0-18.6-3.2-41.9,7.3-52.8c5.5-5.7,14.2-9.7,25-11.6h15.9
					c20.4,0,28.7-0.2,40.5,6.4C700.4,118.5,697.5,138.5,697.3,159.8z M723.3,102.8h25v105h51v-105h25v230h-25v-106h-51v106h-25
					V102.8L723.3,102.8z M851.3,102.8h102v18h-76v87h76v19h-76v87h76v19h-102V102.8z M974.3,102.8h48.4c7.4,0,17.2-1,23.8,0.3
					c11.6,2.3,20,7.7,25.5,14.5c7.2,8.9,4.3,28,4.3,41.7V181c0,7.7,1.5,17.2-0.9,23.9c-3.6,10.3-12.8,17.8-26,21
					c-7.2,1.7-18.1,1-27.3,1h-22.9v106h-25C974.3,332.8,974.3,102.8,974.3,102.8z M1121.8,102.8h25.9c12.6,76.7,25.3,153.3,37.9,230
					h-27.9c-2.6-19.3-5.2-38.7-7.8-58H1120c-2.7,19.3-5.5,38.7-8.2,58h-27.9C1096.5,256.2,1109.1,179.5,1121.8,102.8z M1208.3,102.8
					h49.4c8.1,0,18.3-0.9,25,0.6c8.2,1.8,16.2,6,20.7,10.7c7.3,7.6,6.9,16.6,6.9,29.8v40.8c0,6,1.5,20-0.9,24.3
					c-1.6,2.9-5.7,6.2-9.5,7.5c-1.9,0.6-4.4,0.5-6,1.3c19,0.9,16.4,15.4,16.4,30.5v84.5h-26v-67.1c0-14.3,1.4-25.3-7.3-33.1
					c-7.8-7-26.7-5.6-43.7-5.5v105.7h-25V102.8z M1331.9,102.6c1.6-0.3,17.5,0,26.3,0c0.2,0.1,0.3,0.2,0.4,0.3
					c4.8,14.6,21.9,68.9,24.6,73c0.4-2,23.5-71.8,23.7-73c1.5-0.7,5.5-0.3,7.8-0.3c6.2,0,18.1,0.3,18.6,0s-13.6,40.3-38,114.8v115.5
					h-25.5c0-38.5-0.2-113.8,0-115.5C1364.9,200.4,1336.6,118.7,1331.9,102.6z M999.3,121.3v86c17.8,0.1,37,1.5,44.6-6.1
					c2.6-2.5,4.7-5.6,6-9c1.3-3.7,0.4-9,0.4-13.2v-26.7c0-10.2,0-18.1-5.6-23.8C1036.5,119.8,1018.9,121.2,999.3,121.3z
					 M1233.3,121.3v86c17.8,0.1,37,1.5,44.6-6.1c2.6-2.5,4.7-5.6,6-9c1.3-3.7,0.4-8.9,0.4-13.2v-26.4c0-10.7-0.1-18.6-6-24.5
					C1270.4,120.1,1252.1,121.2,1233.3,121.3z M1122.6,255.8h24.6c-7.7-53.4-12.3-86.4-12.5-86.6
					C1130.7,198.1,1126.7,227,1122.6,255.8z"/>
			</defs>
			<use xlink:href="#SVGID_3_"  style="overflow:visible;fill:#020202;"/>
			<clipPath id="SVGID_4_">
				<use xlink:href="#SVGID_3_"  style="overflow:visible;"/>
			</clipPath>
			<path id="Relleno_de_color_3" class="st3" d="M278.5,165.5l-141.8-3.1c-6.8-1.7-41.8-0.4-41.8,3.6c0,4.6,2.2,26,7.2,26
				c54.5,0,111.6,1.6,167.4,1.6l2.5-0.7c9.2,0,7.4-17.6,7.4-24.2c-0.2-1.2-0.5-2.4-0.7-3.6C278.6,165.2,278.6,165.3,278.5,165.5z"/>
		</g>
	</g>
</g>
</svg>
